<mxfile host="Electron" modified="2024-05-16T10:48:14.191Z" agent="Mozilla/5.0 (Windows NT 10.0; Win64; x64) AppleWebKit/537.36 (KHTML, like Gecko) draw.io/22.1.2 Chrome/114.0.5735.289 Electron/25.9.4 Safari/537.36" etag="aTn5bU-NaiJfiNKXv5cN" version="22.1.2" type="device">
  <diagram name="Страница — 1" id="YS0clcFonFbjMrCdZuUI">
    <mxGraphModel dx="1036" dy="654" grid="1" gridSize="10" guides="1" tooltips="1" connect="1" arrows="1" fold="1" page="1" pageScale="1" pageWidth="827" pageHeight="1169" math="0" shadow="0">
      <root>
        <mxCell id="0" />
        <mxCell id="1" parent="0" />
        <mxCell id="TlAi3XNTAuRXuMAmcUQc-1" value="Node" style="swimlane;fontStyle=1;align=center;verticalAlign=top;childLayout=stackLayout;horizontal=1;startSize=26;horizontalStack=0;resizeParent=1;resizeParentMax=0;resizeLast=0;collapsible=1;marginBottom=0;whiteSpace=wrap;html=1;" vertex="1" parent="1">
          <mxGeometry x="660" y="1040" width="160" height="112" as="geometry" />
        </mxCell>
        <mxCell id="TlAi3XNTAuRXuMAmcUQc-2" value="+ data: TT" style="text;strokeColor=none;fillColor=none;align=left;verticalAlign=top;spacingLeft=4;spacingRight=4;overflow=hidden;rotatable=0;points=[[0,0.5],[1,0.5]];portConstraint=eastwest;whiteSpace=wrap;html=1;" vertex="1" parent="TlAi3XNTAuRXuMAmcUQc-1">
          <mxGeometry y="26" width="160" height="26" as="geometry" />
        </mxCell>
        <mxCell id="TlAi3XNTAuRXuMAmcUQc-3" value="+ next: Node*" style="text;strokeColor=none;fillColor=none;align=left;verticalAlign=top;spacingLeft=4;spacingRight=4;overflow=hidden;rotatable=0;points=[[0,0.5],[1,0.5]];portConstraint=eastwest;whiteSpace=wrap;html=1;" vertex="1" parent="TlAi3XNTAuRXuMAmcUQc-1">
          <mxGeometry y="52" width="160" height="26" as="geometry" />
        </mxCell>
        <mxCell id="TlAi3XNTAuRXuMAmcUQc-4" value="+ prev: Node*" style="text;strokeColor=none;fillColor=none;align=left;verticalAlign=top;spacingLeft=4;spacingRight=4;overflow=hidden;rotatable=0;points=[[0,0.5],[1,0.5]];portConstraint=eastwest;whiteSpace=wrap;html=1;" vertex="1" parent="TlAi3XNTAuRXuMAmcUQc-1">
          <mxGeometry y="78" width="160" height="26" as="geometry" />
        </mxCell>
        <mxCell id="TlAi3XNTAuRXuMAmcUQc-5" value="" style="line;strokeWidth=1;fillColor=none;align=left;verticalAlign=middle;spacingTop=-1;spacingLeft=3;spacingRight=3;rotatable=0;labelPosition=right;points=[];portConstraint=eastwest;strokeColor=inherit;" vertex="1" parent="TlAi3XNTAuRXuMAmcUQc-1">
          <mxGeometry y="104" width="160" height="8" as="geometry" />
        </mxCell>
        <mxCell id="TlAi3XNTAuRXuMAmcUQc-6" value="Iter" style="swimlane;fontStyle=1;align=center;verticalAlign=top;childLayout=stackLayout;horizontal=1;startSize=26;horizontalStack=0;resizeParent=1;resizeParentMax=0;resizeLast=0;collapsible=1;marginBottom=0;whiteSpace=wrap;html=1;" vertex="1" parent="1">
          <mxGeometry x="180" y="900" width="300" height="216" as="geometry" />
        </mxCell>
        <mxCell id="TlAi3XNTAuRXuMAmcUQc-7" value="+ node: Node*" style="text;strokeColor=none;fillColor=none;align=left;verticalAlign=top;spacingLeft=4;spacingRight=4;overflow=hidden;rotatable=0;points=[[0,0.5],[1,0.5]];portConstraint=eastwest;whiteSpace=wrap;html=1;" vertex="1" parent="TlAi3XNTAuRXuMAmcUQc-6">
          <mxGeometry y="26" width="300" height="26" as="geometry" />
        </mxCell>
        <mxCell id="TlAi3XNTAuRXuMAmcUQc-8" value="" style="line;strokeWidth=1;fillColor=none;align=left;verticalAlign=middle;spacingTop=-1;spacingLeft=3;spacingRight=3;rotatable=0;labelPosition=right;points=[];portConstraint=eastwest;strokeColor=inherit;" vertex="1" parent="TlAi3XNTAuRXuMAmcUQc-6">
          <mxGeometry y="52" width="300" height="8" as="geometry" />
        </mxCell>
        <mxCell id="TlAi3XNTAuRXuMAmcUQc-9" value="+ Iter()" style="text;strokeColor=none;fillColor=none;align=left;verticalAlign=top;spacingLeft=4;spacingRight=4;overflow=hidden;rotatable=0;points=[[0,0.5],[1,0.5]];portConstraint=eastwest;whiteSpace=wrap;html=1;" vertex="1" parent="TlAi3XNTAuRXuMAmcUQc-6">
          <mxGeometry y="60" width="300" height="26" as="geometry" />
        </mxCell>
        <mxCell id="TlAi3XNTAuRXuMAmcUQc-10" value="+ Iter(const Iter&amp;lt;TT&amp;gt;&amp;amp; it)" style="text;strokeColor=none;fillColor=none;align=left;verticalAlign=top;spacingLeft=4;spacingRight=4;overflow=hidden;rotatable=0;points=[[0,0.5],[1,0.5]];portConstraint=eastwest;whiteSpace=wrap;html=1;" vertex="1" parent="TlAi3XNTAuRXuMAmcUQc-6">
          <mxGeometry y="86" width="300" height="26" as="geometry" />
        </mxCell>
        <mxCell id="TlAi3XNTAuRXuMAmcUQc-11" value="+ ~Iter()" style="text;strokeColor=none;fillColor=none;align=left;verticalAlign=top;spacingLeft=4;spacingRight=4;overflow=hidden;rotatable=0;points=[[0,0.5],[1,0.5]];portConstraint=eastwest;whiteSpace=wrap;html=1;" vertex="1" parent="TlAi3XNTAuRXuMAmcUQc-6">
          <mxGeometry y="112" width="300" height="26" as="geometry" />
        </mxCell>
        <mxCell id="TlAi3XNTAuRXuMAmcUQc-12" value="+ operator*() const:TT&amp;amp;" style="text;strokeColor=none;fillColor=none;align=left;verticalAlign=top;spacingLeft=4;spacingRight=4;overflow=hidden;rotatable=0;points=[[0,0.5],[1,0.5]];portConstraint=eastwest;whiteSpace=wrap;html=1;" vertex="1" parent="TlAi3XNTAuRXuMAmcUQc-6">
          <mxGeometry y="138" width="300" height="26" as="geometry" />
        </mxCell>
        <mxCell id="TlAi3XNTAuRXuMAmcUQc-13" value="+ operator=(const Iter&amp;lt;TT&amp;gt;&amp;amp; it) :Iter&amp;amp;" style="text;strokeColor=none;fillColor=none;align=left;verticalAlign=top;spacingLeft=4;spacingRight=4;overflow=hidden;rotatable=0;points=[[0,0.5],[1,0.5]];portConstraint=eastwest;whiteSpace=wrap;html=1;" vertex="1" parent="TlAi3XNTAuRXuMAmcUQc-6">
          <mxGeometry y="164" width="300" height="26" as="geometry" />
        </mxCell>
        <mxCell id="TlAi3XNTAuRXuMAmcUQc-14" value="+ operator+(const int&amp;amp; a): Iter&amp;amp;" style="text;strokeColor=none;fillColor=none;align=left;verticalAlign=top;spacingLeft=4;spacingRight=4;overflow=hidden;rotatable=0;points=[[0,0.5],[1,0.5]];portConstraint=eastwest;whiteSpace=wrap;html=1;" vertex="1" parent="TlAi3XNTAuRXuMAmcUQc-6">
          <mxGeometry y="190" width="300" height="26" as="geometry" />
        </mxCell>
        <mxCell id="TlAi3XNTAuRXuMAmcUQc-15" style="edgeStyle=orthogonalEdgeStyle;rounded=0;orthogonalLoop=1;jettySize=auto;html=1;entryX=0.5;entryY=0;entryDx=0;entryDy=0;" edge="1" parent="1" source="TlAi3XNTAuRXuMAmcUQc-7" target="TlAi3XNTAuRXuMAmcUQc-1">
          <mxGeometry relative="1" as="geometry" />
        </mxCell>
        <mxCell id="TlAi3XNTAuRXuMAmcUQc-16" style="edgeStyle=orthogonalEdgeStyle;rounded=0;orthogonalLoop=1;jettySize=auto;html=1;entryX=0.5;entryY=0;entryDx=0;entryDy=0;exitX=1;exitY=0.5;exitDx=0;exitDy=0;" edge="1" parent="1" source="TlAi3XNTAuRXuMAmcUQc-20" target="TlAi3XNTAuRXuMAmcUQc-1">
          <mxGeometry relative="1" as="geometry">
            <Array as="points">
              <mxPoint x="730" y="390" />
              <mxPoint x="740" y="390" />
            </Array>
          </mxGeometry>
        </mxCell>
        <mxCell id="TlAi3XNTAuRXuMAmcUQc-60" style="edgeStyle=orthogonalEdgeStyle;rounded=0;orthogonalLoop=1;jettySize=auto;html=1;entryX=0.5;entryY=0;entryDx=0;entryDy=0;dashed=1;endArrow=classicThin;endFill=1;" edge="1" parent="1" source="TlAi3XNTAuRXuMAmcUQc-17" target="TlAi3XNTAuRXuMAmcUQc-42">
          <mxGeometry relative="1" as="geometry">
            <Array as="points">
              <mxPoint x="540" y="200" />
              <mxPoint x="170" y="200" />
            </Array>
          </mxGeometry>
        </mxCell>
        <mxCell id="TlAi3XNTAuRXuMAmcUQc-17" value="List" style="swimlane;fontStyle=1;align=center;verticalAlign=top;childLayout=stackLayout;horizontal=1;startSize=26;horizontalStack=0;resizeParent=1;resizeParentMax=0;resizeLast=0;collapsible=1;marginBottom=0;whiteSpace=wrap;html=1;" vertex="1" parent="1">
          <mxGeometry x="350" y="287" width="380" height="476" as="geometry" />
        </mxCell>
        <mxCell id="TlAi3XNTAuRXuMAmcUQc-18" value="- size: int" style="text;strokeColor=none;fillColor=none;align=left;verticalAlign=top;spacingLeft=4;spacingRight=4;overflow=hidden;rotatable=0;points=[[0,0.5],[1,0.5]];portConstraint=eastwest;whiteSpace=wrap;html=1;" vertex="1" parent="TlAi3XNTAuRXuMAmcUQc-17">
          <mxGeometry y="26" width="380" height="26" as="geometry" />
        </mxCell>
        <mxCell id="TlAi3XNTAuRXuMAmcUQc-19" value="- head: Node&amp;lt;TT&amp;gt;*" style="text;strokeColor=none;fillColor=none;align=left;verticalAlign=top;spacingLeft=4;spacingRight=4;overflow=hidden;rotatable=0;points=[[0,0.5],[1,0.5]];portConstraint=eastwest;whiteSpace=wrap;html=1;" vertex="1" parent="TlAi3XNTAuRXuMAmcUQc-17">
          <mxGeometry y="52" width="380" height="26" as="geometry" />
        </mxCell>
        <mxCell id="TlAi3XNTAuRXuMAmcUQc-20" value="- tail: Node&amp;lt;TT&amp;gt;*" style="text;strokeColor=none;fillColor=none;align=left;verticalAlign=top;spacingLeft=4;spacingRight=4;overflow=hidden;rotatable=0;points=[[0,0.5],[1,0.5]];portConstraint=eastwest;whiteSpace=wrap;html=1;" vertex="1" parent="TlAi3XNTAuRXuMAmcUQc-17">
          <mxGeometry y="78" width="380" height="26" as="geometry" />
        </mxCell>
        <mxCell id="TlAi3XNTAuRXuMAmcUQc-21" value="- start: Iter&amp;lt;TT&amp;gt;" style="text;strokeColor=none;fillColor=none;align=left;verticalAlign=top;spacingLeft=4;spacingRight=4;overflow=hidden;rotatable=0;points=[[0,0.5],[1,0.5]];portConstraint=eastwest;whiteSpace=wrap;html=1;" vertex="1" parent="TlAi3XNTAuRXuMAmcUQc-17">
          <mxGeometry y="104" width="380" height="26" as="geometry" />
        </mxCell>
        <mxCell id="TlAi3XNTAuRXuMAmcUQc-22" value="- end: Iter&amp;lt;TT&amp;gt;" style="text;strokeColor=none;fillColor=none;align=left;verticalAlign=top;spacingLeft=4;spacingRight=4;overflow=hidden;rotatable=0;points=[[0,0.5],[1,0.5]];portConstraint=eastwest;whiteSpace=wrap;html=1;" vertex="1" parent="TlAi3XNTAuRXuMAmcUQc-17">
          <mxGeometry y="130" width="380" height="26" as="geometry" />
        </mxCell>
        <mxCell id="TlAi3XNTAuRXuMAmcUQc-23" value="" style="line;strokeWidth=1;fillColor=none;align=left;verticalAlign=middle;spacingTop=-1;spacingLeft=3;spacingRight=3;rotatable=0;labelPosition=right;points=[];portConstraint=eastwest;strokeColor=inherit;" vertex="1" parent="TlAi3XNTAuRXuMAmcUQc-17">
          <mxGeometry y="156" width="380" height="8" as="geometry" />
        </mxCell>
        <mxCell id="TlAi3XNTAuRXuMAmcUQc-24" value="+ List()" style="text;strokeColor=none;fillColor=none;align=left;verticalAlign=top;spacingLeft=4;spacingRight=4;overflow=hidden;rotatable=0;points=[[0,0.5],[1,0.5]];portConstraint=eastwest;whiteSpace=wrap;html=1;" vertex="1" parent="TlAi3XNTAuRXuMAmcUQc-17">
          <mxGeometry y="164" width="380" height="26" as="geometry" />
        </mxCell>
        <mxCell id="TlAi3XNTAuRXuMAmcUQc-25" value="+ List(int second)" style="text;strokeColor=none;fillColor=none;align=left;verticalAlign=top;spacingLeft=4;spacingRight=4;overflow=hidden;rotatable=0;points=[[0,0.5],[1,0.5]];portConstraint=eastwest;whiteSpace=wrap;html=1;" vertex="1" parent="TlAi3XNTAuRXuMAmcUQc-17">
          <mxGeometry y="190" width="380" height="26" as="geometry" />
        </mxCell>
        <mxCell id="TlAi3XNTAuRXuMAmcUQc-26" value="+ List(const List&amp;amp; l)" style="text;strokeColor=none;fillColor=none;align=left;verticalAlign=top;spacingLeft=4;spacingRight=4;overflow=hidden;rotatable=0;points=[[0,0.5],[1,0.5]];portConstraint=eastwest;whiteSpace=wrap;html=1;" vertex="1" parent="TlAi3XNTAuRXuMAmcUQc-17">
          <mxGeometry y="216" width="380" height="26" as="geometry" />
        </mxCell>
        <mxCell id="TlAi3XNTAuRXuMAmcUQc-27" value="+ ~List" style="text;strokeColor=none;fillColor=none;align=left;verticalAlign=top;spacingLeft=4;spacingRight=4;overflow=hidden;rotatable=0;points=[[0,0.5],[1,0.5]];portConstraint=eastwest;whiteSpace=wrap;html=1;" vertex="1" parent="TlAi3XNTAuRXuMAmcUQc-17">
          <mxGeometry y="242" width="380" height="26" as="geometry" />
        </mxCell>
        <mxCell id="TlAi3XNTAuRXuMAmcUQc-28" value="+ first(): Iter&amp;lt;TT&amp;gt;" style="text;strokeColor=none;fillColor=none;align=left;verticalAlign=top;spacingLeft=4;spacingRight=4;overflow=hidden;rotatable=0;points=[[0,0.5],[1,0.5]];portConstraint=eastwest;whiteSpace=wrap;html=1;" vertex="1" parent="TlAi3XNTAuRXuMAmcUQc-17">
          <mxGeometry y="268" width="380" height="26" as="geometry" />
        </mxCell>
        <mxCell id="TlAi3XNTAuRXuMAmcUQc-29" value="+ last(): Iter&amp;lt;TT&amp;gt;" style="text;strokeColor=none;fillColor=none;align=left;verticalAlign=top;spacingLeft=4;spacingRight=4;overflow=hidden;rotatable=0;points=[[0,0.5],[1,0.5]];portConstraint=eastwest;whiteSpace=wrap;html=1;" vertex="1" parent="TlAi3XNTAuRXuMAmcUQc-17">
          <mxGeometry y="294" width="380" height="26" as="geometry" />
        </mxCell>
        <mxCell id="TlAi3XNTAuRXuMAmcUQc-30" value="+ push(TT a): void" style="text;strokeColor=none;fillColor=none;align=left;verticalAlign=top;spacingLeft=4;spacingRight=4;overflow=hidden;rotatable=0;points=[[0,0.5],[1,0.5]];portConstraint=eastwest;whiteSpace=wrap;html=1;" vertex="1" parent="TlAi3XNTAuRXuMAmcUQc-17">
          <mxGeometry y="320" width="380" height="26" as="geometry" />
        </mxCell>
        <mxCell id="TlAi3XNTAuRXuMAmcUQc-31" value="+ pop(): void" style="text;strokeColor=none;fillColor=none;align=left;verticalAlign=top;spacingLeft=4;spacingRight=4;overflow=hidden;rotatable=0;points=[[0,0.5],[1,0.5]];portConstraint=eastwest;whiteSpace=wrap;html=1;" vertex="1" parent="TlAi3XNTAuRXuMAmcUQc-17">
          <mxGeometry y="346" width="380" height="26" as="geometry" />
        </mxCell>
        <mxCell id="TlAi3XNTAuRXuMAmcUQc-32" value="+ operator=(const List&amp;lt;TT&amp;gt;&amp;amp; l): List&amp;lt;TT&amp;gt;&amp;amp;" style="text;strokeColor=none;fillColor=none;align=left;verticalAlign=top;spacingLeft=4;spacingRight=4;overflow=hidden;rotatable=0;points=[[0,0.5],[1,0.5]];portConstraint=eastwest;whiteSpace=wrap;html=1;" vertex="1" parent="TlAi3XNTAuRXuMAmcUQc-17">
          <mxGeometry y="372" width="380" height="26" as="geometry" />
        </mxCell>
        <mxCell id="TlAi3XNTAuRXuMAmcUQc-33" value="+ operator[](int i): TT&amp;amp;;" style="text;strokeColor=none;fillColor=none;align=left;verticalAlign=top;spacingLeft=4;spacingRight=4;overflow=hidden;rotatable=0;points=[[0,0.5],[1,0.5]];portConstraint=eastwest;whiteSpace=wrap;html=1;" vertex="1" parent="TlAi3XNTAuRXuMAmcUQc-17">
          <mxGeometry y="398" width="380" height="26" as="geometry" />
        </mxCell>
        <mxCell id="TlAi3XNTAuRXuMAmcUQc-34" value="+ operator()(): int&amp;amp;" style="text;strokeColor=none;fillColor=none;align=left;verticalAlign=top;spacingLeft=4;spacingRight=4;overflow=hidden;rotatable=0;points=[[0,0.5],[1,0.5]];portConstraint=eastwest;whiteSpace=wrap;html=1;" vertex="1" parent="TlAi3XNTAuRXuMAmcUQc-17">
          <mxGeometry y="424" width="380" height="26" as="geometry" />
        </mxCell>
        <mxCell id="TlAi3XNTAuRXuMAmcUQc-35" value="+ operator*(List&amp;lt;TT&amp;gt;&amp;amp; l): List" style="text;strokeColor=none;fillColor=none;align=left;verticalAlign=top;spacingLeft=4;spacingRight=4;overflow=hidden;rotatable=0;points=[[0,0.5],[1,0.5]];portConstraint=eastwest;whiteSpace=wrap;html=1;" vertex="1" parent="TlAi3XNTAuRXuMAmcUQc-17">
          <mxGeometry y="450" width="380" height="26" as="geometry" />
        </mxCell>
        <mxCell id="TlAi3XNTAuRXuMAmcUQc-36" style="edgeStyle=orthogonalEdgeStyle;rounded=0;orthogonalLoop=1;jettySize=auto;html=1;entryX=0.5;entryY=0;entryDx=0;entryDy=0;" edge="1" parent="1" source="TlAi3XNTAuRXuMAmcUQc-21" target="TlAi3XNTAuRXuMAmcUQc-6">
          <mxGeometry relative="1" as="geometry" />
        </mxCell>
        <mxCell id="TlAi3XNTAuRXuMAmcUQc-42" value="Pair" style="swimlane;fontStyle=1;align=center;verticalAlign=top;childLayout=stackLayout;horizontal=1;startSize=26;horizontalStack=0;resizeParent=1;resizeParentMax=0;resizeLast=0;collapsible=1;marginBottom=0;whiteSpace=wrap;html=1;" vertex="1" parent="1">
          <mxGeometry x="20" y="350" width="300" height="450" as="geometry" />
        </mxCell>
        <mxCell id="TlAi3XNTAuRXuMAmcUQc-43" value="- first: int" style="text;strokeColor=none;fillColor=none;align=left;verticalAlign=top;spacingLeft=4;spacingRight=4;overflow=hidden;rotatable=0;points=[[0,0.5],[1,0.5]];portConstraint=eastwest;whiteSpace=wrap;html=1;" vertex="1" parent="TlAi3XNTAuRXuMAmcUQc-42">
          <mxGeometry y="26" width="300" height="26" as="geometry" />
        </mxCell>
        <mxCell id="TlAi3XNTAuRXuMAmcUQc-44" value="- second: double" style="text;strokeColor=none;fillColor=none;align=left;verticalAlign=top;spacingLeft=4;spacingRight=4;overflow=hidden;rotatable=0;points=[[0,0.5],[1,0.5]];portConstraint=eastwest;whiteSpace=wrap;html=1;" vertex="1" parent="TlAi3XNTAuRXuMAmcUQc-42">
          <mxGeometry y="52" width="300" height="26" as="geometry" />
        </mxCell>
        <mxCell id="TlAi3XNTAuRXuMAmcUQc-45" value="" style="line;strokeWidth=1;fillColor=none;align=left;verticalAlign=middle;spacingTop=-1;spacingLeft=3;spacingRight=3;rotatable=0;labelPosition=right;points=[];portConstraint=eastwest;strokeColor=inherit;" vertex="1" parent="TlAi3XNTAuRXuMAmcUQc-42">
          <mxGeometry y="78" width="300" height="8" as="geometry" />
        </mxCell>
        <mxCell id="TlAi3XNTAuRXuMAmcUQc-46" value="+ Pair()" style="text;strokeColor=none;fillColor=none;align=left;verticalAlign=top;spacingLeft=4;spacingRight=4;overflow=hidden;rotatable=0;points=[[0,0.5],[1,0.5]];portConstraint=eastwest;whiteSpace=wrap;html=1;" vertex="1" parent="TlAi3XNTAuRXuMAmcUQc-42">
          <mxGeometry y="86" width="300" height="26" as="geometry" />
        </mxCell>
        <mxCell id="TlAi3XNTAuRXuMAmcUQc-47" value="+ Pair(int first, double second)" style="text;strokeColor=none;fillColor=none;align=left;verticalAlign=top;spacingLeft=4;spacingRight=4;overflow=hidden;rotatable=0;points=[[0,0.5],[1,0.5]];portConstraint=eastwest;whiteSpace=wrap;html=1;" vertex="1" parent="TlAi3XNTAuRXuMAmcUQc-42">
          <mxGeometry y="112" width="300" height="26" as="geometry" />
        </mxCell>
        <mxCell id="TlAi3XNTAuRXuMAmcUQc-48" value="+ Pair(Pair&amp;amp; P)" style="text;strokeColor=none;fillColor=none;align=left;verticalAlign=top;spacingLeft=4;spacingRight=4;overflow=hidden;rotatable=0;points=[[0,0.5],[1,0.5]];portConstraint=eastwest;whiteSpace=wrap;html=1;" vertex="1" parent="TlAi3XNTAuRXuMAmcUQc-42">
          <mxGeometry y="138" width="300" height="26" as="geometry" />
        </mxCell>
        <mxCell id="TlAi3XNTAuRXuMAmcUQc-49" value="+ ~Pair()" style="text;strokeColor=none;fillColor=none;align=left;verticalAlign=top;spacingLeft=4;spacingRight=4;overflow=hidden;rotatable=0;points=[[0,0.5],[1,0.5]];portConstraint=eastwest;whiteSpace=wrap;html=1;" vertex="1" parent="TlAi3XNTAuRXuMAmcUQc-42">
          <mxGeometry y="164" width="300" height="26" as="geometry" />
        </mxCell>
        <mxCell id="TlAi3XNTAuRXuMAmcUQc-50" value="+ sub(): double" style="text;strokeColor=none;fillColor=none;align=left;verticalAlign=top;spacingLeft=4;spacingRight=4;overflow=hidden;rotatable=0;points=[[0,0.5],[1,0.5]];portConstraint=eastwest;whiteSpace=wrap;html=1;" vertex="1" parent="TlAi3XNTAuRXuMAmcUQc-42">
          <mxGeometry y="190" width="300" height="26" as="geometry" />
        </mxCell>
        <mxCell id="TlAi3XNTAuRXuMAmcUQc-51" value="+ add(int thing): void" style="text;strokeColor=none;fillColor=none;align=left;verticalAlign=top;spacingLeft=4;spacingRight=4;overflow=hidden;rotatable=0;points=[[0,0.5],[1,0.5]];portConstraint=eastwest;whiteSpace=wrap;html=1;" vertex="1" parent="TlAi3XNTAuRXuMAmcUQc-42">
          <mxGeometry y="216" width="300" height="26" as="geometry" />
        </mxCell>
        <mxCell id="TlAi3XNTAuRXuMAmcUQc-52" value="+ add(double thing): void" style="text;strokeColor=none;fillColor=none;align=left;verticalAlign=top;spacingLeft=4;spacingRight=4;overflow=hidden;rotatable=0;points=[[0,0.5],[1,0.5]];portConstraint=eastwest;whiteSpace=wrap;html=1;" vertex="1" parent="TlAi3XNTAuRXuMAmcUQc-42">
          <mxGeometry y="242" width="300" height="26" as="geometry" />
        </mxCell>
        <mxCell id="TlAi3XNTAuRXuMAmcUQc-53" value="+ setFirst(int first): void" style="text;strokeColor=none;fillColor=none;align=left;verticalAlign=top;spacingLeft=4;spacingRight=4;overflow=hidden;rotatable=0;points=[[0,0.5],[1,0.5]];portConstraint=eastwest;whiteSpace=wrap;html=1;" vertex="1" parent="TlAi3XNTAuRXuMAmcUQc-42">
          <mxGeometry y="268" width="300" height="26" as="geometry" />
        </mxCell>
        <mxCell id="TlAi3XNTAuRXuMAmcUQc-54" value="+ setSecond(double second): void" style="text;strokeColor=none;fillColor=none;align=left;verticalAlign=top;spacingLeft=4;spacingRight=4;overflow=hidden;rotatable=0;points=[[0,0.5],[1,0.5]];portConstraint=eastwest;whiteSpace=wrap;html=1;" vertex="1" parent="TlAi3XNTAuRXuMAmcUQc-42">
          <mxGeometry y="294" width="300" height="26" as="geometry" />
        </mxCell>
        <mxCell id="TlAi3XNTAuRXuMAmcUQc-55" value="+ getFirst(): int" style="text;strokeColor=none;fillColor=none;align=left;verticalAlign=top;spacingLeft=4;spacingRight=4;overflow=hidden;rotatable=0;points=[[0,0.5],[1,0.5]];portConstraint=eastwest;whiteSpace=wrap;html=1;" vertex="1" parent="TlAi3XNTAuRXuMAmcUQc-42">
          <mxGeometry y="320" width="300" height="26" as="geometry" />
        </mxCell>
        <mxCell id="TlAi3XNTAuRXuMAmcUQc-56" value="+ getSecond(): double" style="text;strokeColor=none;fillColor=none;align=left;verticalAlign=top;spacingLeft=4;spacingRight=4;overflow=hidden;rotatable=0;points=[[0,0.5],[1,0.5]];portConstraint=eastwest;whiteSpace=wrap;html=1;" vertex="1" parent="TlAi3XNTAuRXuMAmcUQc-42">
          <mxGeometry y="346" width="300" height="26" as="geometry" />
        </mxCell>
        <mxCell id="TlAi3XNTAuRXuMAmcUQc-57" value="+ operator=(Pair&amp;amp; P): void" style="text;strokeColor=none;fillColor=none;align=left;verticalAlign=top;spacingLeft=4;spacingRight=4;overflow=hidden;rotatable=0;points=[[0,0.5],[1,0.5]];portConstraint=eastwest;whiteSpace=wrap;html=1;" vertex="1" parent="TlAi3XNTAuRXuMAmcUQc-42">
          <mxGeometry y="372" width="300" height="26" as="geometry" />
        </mxCell>
        <mxCell id="TlAi3XNTAuRXuMAmcUQc-58" value="friend operator&amp;lt;&amp;lt;(ostream&amp;amp; out, Pair&amp;amp; P): ostream&amp;amp;" style="text;strokeColor=none;fillColor=none;align=left;verticalAlign=top;spacingLeft=4;spacingRight=4;overflow=hidden;rotatable=0;points=[[0,0.5],[1,0.5]];portConstraint=eastwest;whiteSpace=wrap;html=1;" vertex="1" parent="TlAi3XNTAuRXuMAmcUQc-42">
          <mxGeometry y="398" width="300" height="26" as="geometry" />
        </mxCell>
        <mxCell id="TlAi3XNTAuRXuMAmcUQc-59" value="friend operator&amp;lt;&amp;lt;(istream&amp;amp; in, Pair&amp;amp; P): istream&amp;amp;" style="text;strokeColor=none;fillColor=none;align=left;verticalAlign=top;spacingLeft=4;spacingRight=4;overflow=hidden;rotatable=0;points=[[0,0.5],[1,0.5]];portConstraint=eastwest;whiteSpace=wrap;html=1;" vertex="1" parent="TlAi3XNTAuRXuMAmcUQc-42">
          <mxGeometry y="424" width="300" height="26" as="geometry" />
        </mxCell>
      </root>
    </mxGraphModel>
  </diagram>
</mxfile>
